<?xml version="1.0" standalone="no"?>
<!DOCTYPE svg PUBLIC "-//W3C//DTD SVG 20010904//EN"
        "http://www.w3.org/TR/2001/REC-SVG-20010904/DTD/svg10.dtd">
<svg version="1.0" xmlns="http://www.w3.org/2000/svg"
     width="383.000000pt" height="383.000000pt" viewBox="0 0 383.000000 383.000000"
     preserveAspectRatio="xMidYMid meet">

    <g transform="translate(0.000000,383.000000) scale(0.100000,-0.100000)"
       fill="#000000" stroke="none">
        <path d="M1855 3821 c-60 -15 -93 -43 -275 -225 l-185 -186 218 -218 218 -218
49 10 c186 38 368 -147 333 -339 l-9 -54 203 -203 203 -203 98 0 c89 0 101 -2
151 -30 50 -28 104 -83 130 -132 26 -50 33 -130 17 -194 -54 -209 -282 -294
-459 -172 -54 37 -95 101 -113 176 -14 56 -14 70 -2 120 l15 56 -194 193 -193
193 0 -512 0 -511 63 -64 c50 -50 67 -75 81 -122 33 -106 6 -216 -74 -296 -59
-59 -119 -84 -205 -84 -89 -1 -166 34 -224 100 -117 133 -87 345 64 440 l45
29 0 521 0 521 -48 30 c-53 33 -106 105 -123 167 -11 40 -8 147 5 176 4 11
-58 79 -209 230 l-215 215 -586 -585 c-347 -347 -594 -601 -606 -625 -31 -57
-30 -155 0 -215 32 -62 1721 -1749 1784 -1781 50 -26 132 -30 193 -10 33 11
195 168 908 880 633 632 873 878 889 911 30 61 29 149 -1 210 -32 63 -1717
1749 -1779 1780 -48 24 -122 33 -167 21z"/>
    </g>
</svg>
